<svg viewBox="0 0 48 40" version="1.1" xmlns="http://www.w3.org/2000/svg" xmlns:xlink="http://www.w3.org/1999/xlink"><g id="logo-ge-alternative" stroke="none" stroke-width="1" fill="none" fill-rule="evenodd"><g id="logo-ge-alternative"><rect id="Rectangle" x="0" y="0" width="48" height="40"></rect><path d="M31.0052435,15.3074522 C31.6566348,12.9522348 33.6611565,11.2484087 36.4674174,11.2484087 C38.7724609,11.2484087 40.7769826,12.7016261 41.4283739,15.3074522 L31.0052435,15.3074522 Z M36.3170696,6.08693043 C30.0030696,6.08693043 24.7914174,11.2984957 24.7914174,18.113713 C24.7914174,25.0791913 30.0030696,30.1404957 36.6677652,30.1404957 C42.0297652,30.1404957 46.0387217,27.7852783 47.4417652,23.5258 C47.6923739,22.7741478 47.3415913,22.2229304 46.4896783,22.2229304 L42.6812435,22.2229304 C42.0297652,22.2229304 41.6288957,22.4734522 41.2280261,23.0246696 C40.2758522,24.2774522 38.8727217,24.8287565 36.9183739,24.8287565 C33.8616783,24.8287565 31.5564609,22.8743217 30.9551565,19.9178 L46.740287,19.9178 C47.4919391,19.9178 47.9428957,19.4667565 47.9428957,18.7150174 L47.9428957,18.6649304 C47.9428957,11.6493652 43.5831565,6.08693043 36.3170696,6.08693043 L36.3170696,6.08693043 Z" id="Fill-1" fill="#06aa48"></path><path d="M11.7762174,24.2273739 C8.61917391,24.2273739 5.96326087,21.7218087 5.96326087,18.0636348 C5.96326087,14.3553739 8.61917391,11.8998957 11.7762174,11.8998957 C14.9332609,11.8998957 17.539087,14.3553739 17.539087,18.0636348 C17.539087,21.7218087 14.9332609,24.2273739 11.7762174,24.2273739 M22.3497826,6.4878087 L18.9422174,6.4878087 C18.1904783,6.4878087 17.7395217,6.93885217 17.7395217,7.69050435 L17.7395217,8.99346087 C16.3864783,7.33972174 13.880913,6.08693913 11.3753478,6.08693913 C5.26178261,6.08693913 4.34782605e-05,11.2985043 4.34782605e-05,18.1137217 C4.34782605e-05,24.9288522 4.96108696,29.6393739 11.225,29.6393739 C14.0312609,29.6393739 16.1860435,28.3365043 17.438913,26.9834609 C17.3887391,31.7440696 14.8831739,33.8988522 10.5735217,33.8988522 C8.2683913,33.8988522 6.1136087,33.1973739 3.60804348,31.5937217 C2.95665217,31.1426783 2.20491304,31.2930261 1.85413043,31.9946783 L0.35073913,34.951287 C4.34782605e-05,35.6527652 0.100217391,36.3042435 0.801782609,36.755287 C3.90865217,38.7597217 7.56682609,39.7618957 10.7238696,39.7618957 C18.9923043,39.7618957 23.5523913,35.3020696 23.5523913,25.029113 L23.5523913,7.69050435 C23.5523913,6.93885217 23.1014348,6.4878087 22.3497826,6.4878087" id="Fill-4" fill="#06aa48"></path></g></g></svg>