<svg xmlns="http://www.w3.org/2000/svg" fill="none" viewBox="0 0 44 25"><path fill="#530082" fill-rule="evenodd" d="M1.58599 10.4181C1.52435 11.4306 1.58599 12.4433 1.58599 13.425V22.9987H6.96499V14.223C6.96499 11.492 6.93428 9.06812 6.96499 8.54631C7.05666 6.21454 7.70268 4.65048 8.90145 3.39143H8.62485C6.01235 3.39143 3.55316 4.895 2.35439 7.227C1.83189 8.23968 1.64741 9.31356 1.58599 10.4181Z" clip-rule="evenodd"></path><path fill="#530082" fill-rule="evenodd" d="M13.9121 1.26431C11.9143 1.26431 10.1928 2.06204 8.90186 3.38158C12.8978 3.38158 15.5106 6.11233 15.6334 10.4399C15.6641 11.4219 15.695 16.7608 15.695 16.7608V22.9898H21.074V14.5812C21.074 12.0345 21.1048 9.82506 20.9203 8.32173C20.3978 4.08719 17.816 1.26431 13.9121 1.26431Z" clip-rule="evenodd"></path><path fill="#530082" fill-rule="evenodd" d="M42.2522 14.3419C42.3136 13.3292 42.2522 12.3168 42.2522 11.3348V1.76137H36.8732V10.5371C36.8732 13.2678 36.9039 15.692 36.8732 16.2135C36.7815 18.5762 36.1355 20.1094 34.9058 21.3991H35.1824C37.7949 21.3991 40.2543 19.8956 41.4531 17.5636C42.0065 16.5204 42.1898 15.4458 42.2522 14.3419Z" clip-rule="evenodd"></path><path fill="#530082" fill-rule="evenodd" d="M29.9255 23.4857C31.9237 23.4857 33.6449 22.688 34.9358 21.3684C30.9401 21.3684 28.3273 18.6374 28.2043 14.3101C28.1736 13.3281 28.1429 10.8428 28.1429 7.9892V1.76137H22.7636V10.1688C22.7636 12.7155 22.7329 14.9249 22.9174 16.4283C23.4399 20.6628 26.0219 23.4857 29.9255 23.4857Z" clip-rule="evenodd"></path></svg>