<svg version="1.2" baseProfile="tiny-ps" xmlns="http://www.w3.org/2000/svg" viewBox="0 0 1696 908" width="1696" height="908">
	<title>thoughtworks-logo-svg</title>
	<style>
		tspan { white-space:pre }
		.shp0 { fill: #f2617a } 
		.shp1 { fill: #ffffff } 
	</style>
	<g id="Layer_2">
		<g id="Layer_1-2">
			<path id="Layer" class="shp0" d="M458.45 0L0 901.16L212.97 901.16L671.58 0L458.45 0L458.45 0Z" />
			<path id="Layer" class="shp1" d="M880.68 790.31C876.27 790.84 871.82 790.97 867.4 790.7C862.97 790.43 858.57 789.76 854.26 788.7C849.95 787.64 845.75 786.18 841.7 784.36C837.66 782.53 833.78 780.35 830.13 777.82C827.61 774.17 825.42 770.29 823.59 766.24C821.77 762.18 820.32 757.97 819.26 753.66C818.19 749.34 817.52 744.94 817.26 740.5C816.99 736.07 817.12 731.62 817.66 727.2L817.66 460.11L893.99 460.11L944.53 360.73L818 360.73L818 198.76L669.9 198.76L669.9 360.73L595.6 360.73L545.05 459.94L669.73 459.94L669.73 778.83C669.48 784.49 669.57 790.15 670.02 795.79C670.46 801.43 671.26 807.03 672.39 812.57C673.53 818.12 675 823.58 676.81 828.94C678.62 834.3 680.76 839.54 683.21 844.64C685.32 848.65 687.71 852.51 690.36 856.19C693.01 859.86 695.91 863.35 699.04 866.63C702.17 869.91 705.52 872.96 709.07 875.78C712.63 878.59 716.37 881.15 720.28 883.44C724.51 885.79 728.85 887.94 733.28 889.88C737.71 891.82 742.22 893.56 746.81 895.09C751.4 896.62 756.06 897.93 760.77 899.03C765.48 900.13 770.24 901.01 775.03 901.67C780.43 902.48 785.84 903.19 791.26 903.79C796.68 904.4 802.11 904.89 807.55 905.29C812.99 905.68 818.43 905.97 823.88 906.16C829.33 906.34 834.79 906.42 840.24 906.39C854.9 906.39 869.89 906.39 885.06 905.38C888.54 905.23 892.02 905.03 895.5 904.78C898.98 904.53 902.46 904.23 905.93 903.87C909.4 903.52 912.86 903.12 916.32 902.67C919.78 902.22 923.23 901.71 926.67 901.16L926.67 786.09C924.87 786.47 923.05 786.83 921.24 787.15C919.42 787.48 917.6 787.77 915.77 788.04C913.94 788.31 912.11 788.54 910.28 788.75C908.45 788.96 906.61 789.14 904.77 789.3C897.02 789.97 888.93 790.31 880.68 790.31ZM1541.78 365.19L1442.54 730.81L1440.52 730.81L1348.69 365.19L1204.64 365.19L1114.83 731.99L1112.81 731.99L1013.74 365.19L917.2 554.66L1028.4 905.44L1181.72 905.44L1273.55 542.68L1275.57 542.68L1371.61 905.44L1524.09 905.44L1694.09 365.19L1541.78 365.19L1541.78 365.19Z" />
		</g>
	</g>
</svg>